<?xml version="1.0" standalone="no"?>
<!DOCTYPE svg PUBLIC "-//W3C//DTD SVG 1.1//EN" "http://www.w3.org/Graphics/SVG/1.1/DTD/svg11.dtd" >
<svg xmlns="http://www.w3.org/2000/svg" xmlns:xlink="http://www.w3.org/1999/xlink" version="1.1">
<metadata></metadata>
<defs>
<font id="gang_of_threeregular" horiz-adv-x="997" >
<font-face units-per-em="2048" ascent="1638" descent="-410" />
<missing-glyph horiz-adv-x="455" />
<glyph horiz-adv-x="0" />
<glyph unicode="&#xd;" horiz-adv-x="455" />
<glyph unicode=" "  horiz-adv-x="455" />
<glyph unicode="&#x09;" horiz-adv-x="455" />
<glyph unicode="&#xa0;" horiz-adv-x="455" />
<glyph unicode="!" horiz-adv-x="397" d="M77 1088h267l-72 -798l-194 3zM78 4l1 208h193v-209z" />
<glyph unicode="&#x22;" horiz-adv-x="478" d="M55 794v325h169v-325h-169zM273 794v325h156v-325h-156z" />
<glyph unicode="#" horiz-adv-x="911" />
<glyph unicode="$" horiz-adv-x="822" d="M30 212l193 64q13 -18 34 -34q49 -36 117 -40v273q-133 11 -229 83q-115 85 -115 207q0 120 116 205q96 72 228 84v168h88v-167q141 -9 244 -85q49 -37 79 -81l-195 -64q-12 19 -33 34q-42 30 -95 37v-273q119 -15 208 -81q115 -84 115 -206q0 -120 -116 -205 q-89 -65 -207 -81v-211h-88v207q-155 3 -265 85q-51 37 -79 81zM242 763q0 -55 54 -94q34 -26 78 -35v260q-44 -10 -78 -35q-54 -39 -54 -96zM462 214q30 9 55 28q53 40 53 96t-52 95q-25 18 -56 28v-247z" />
<glyph unicode="%" horiz-adv-x="1456" />
<glyph unicode="&#x26;" horiz-adv-x="933" d="M54 237v315q19 126 116 120q-98 21 -87 213.5t337 201.5h108l29 -227h-142q-130 0 -119 -85t146 -96l440 3l-7 -214h-64q-1 -266 73 -265v-202q-247 -29 -290 277v92l132 90l-132 2l-312 1q-8 -201 34 -229t211 -8l80 -200q-189 -45 -365 -4q-75 18 -127.5 69.5 t-60.5 145.5z" />
<glyph unicode="'" horiz-adv-x="282" d="M55 794v325h169v-325h-169z" />
<glyph unicode="(" horiz-adv-x="500" d="M104 530q0 382 150 754l184 31q-190 -426 -190 -865q0 -341 115 -691l-109 -1q-150 392 -150 772z" />
<glyph unicode=")" horiz-adv-x="500" d="M104 -242q190 427 190 866q0 341 -115 690l110 1q149 -391 149 -772t-150 -753z" />
<glyph unicode="*" horiz-adv-x="637" />
<glyph unicode="+" horiz-adv-x="956" />
<glyph unicode="," horiz-adv-x="517" d="M42 22l140 348l192 -74l-125 -341z" />
<glyph unicode="-" horiz-adv-x="572" d="M52 554l36 206l338 1l-36 -207h-338z" />
<glyph unicode="." horiz-adv-x="466" d="M113 81l1 252h204v-253z" />
<glyph unicode="/" horiz-adv-x="540" d="M63 -259l271 1534l140 -63l-337 -1488z" />
<glyph unicode="0" horiz-adv-x="881" d="M62 120l1 841q-5 117 102 127h546q95 -13 100 -126l-1 -837q4 -128 -101 -126l-548 1q-107 -8 -99 120zM240 260q12 -54 89 -46h233q71 -12 73 49l1 558q6 52 -91 51h-220q-92 1 -84 -46zM354 537q-10 191 89 171q104 18 89 -171q15 -195 -89 -171q-101 -13 -89 171z" />
<glyph unicode="1" horiz-adv-x="881" d="M227 -1v218l98 -1v650h-67l33 224h185q73 -11 73 -167v-707h87l-1 -215z" />
<glyph unicode="2" horiz-adv-x="881" d="M66 2v236l513 526l-2 114l-291 -3q-34 -1 -36 -101l-179 -2l3 214q-1 104 127 104l522 -1q79 1 81 -126v-200q-2 -80 -63 -125l-416 -413l316 1v88h163v-314z" />
<glyph unicode="3" horiz-adv-x="879" d="M62 110l2 193l194 1l3 -78h349l2 235l-302 -1v198l300 1l2 214h-352l-1 -63l-195 -1v174q-1 104 101 104h554q90 0 91 -113v-336q-4 -58 -76 -79q76 -5 75 -72l-2 -365q2 -121 -90 -122h-572q-92 -9 -83 110z" />
<glyph unicode="4" horiz-adv-x="881" d="M49 165v227l556 696h190v-696h61v-223l-65 1l-1 -170h-172v165h-569zM309 392h306l1 395z" />
<glyph unicode="5" horiz-adv-x="881" d="M60 101v173h187q-17 -75 122 -67h192q89 -11 77 115q11 129 -52 128h-524v637l748 -1v-216h-556v-178l498 1q63 -11 64 -107v-468q-7 -115 -95 -120l-570 3q-86 9 -91 100z" />
<glyph unicode="6" horiz-adv-x="881" d="M61 124v838q1 126 75 128l605 -1l-2 -228h-453q-45 -1 -38 -100v-101h480q74 -7 83 -129v-371q-8 -159 -73 -160h-608q-69 2 -69 124zM248 210l402 1l-1 237h-401v-238z" />
<glyph unicode="7" horiz-adv-x="881" d="M64 759l1 329h745v-214l-348 -875l-220 2l366 872l-366 1v-115h-178z" />
<glyph unicode="8" horiz-adv-x="881" d="M71 126l1 317q2 77 61 99q-62 25 -61 107v313q-1 128 72 128h602q68 0 67 -127l-1 -316q2 -78 -63 -98q68 -15 65 -103v-307q1 -138 -72 -139h-602q-70 0 -69 126zM291 670h311l1 203h-312v-203zM299 228h304v215h-304v-215z" />
<glyph unicode="9" horiz-adv-x="881" d="M63 558v371q7 159 72 160l609 1q70 -3 70 -125v-839q-2 -124 -76 -126h-606l3 229h453q46 0 38 99v101h-480q-74 7 -83 129zM224 877l1 -235h401v236z" />
<glyph unicode=":" horiz-adv-x="466" d="M113 81l1 252h204v-253zM113 471l1 252h204v-253z" />
<glyph unicode=";" horiz-adv-x="517" d="M42 22l140 348l192 -74l-125 -341zM158 470v252h205v-252h-205z" />
<glyph unicode="&#x3c;" horiz-adv-x="956" />
<glyph unicode="=" horiz-adv-x="956" />
<glyph unicode="&#x3e;" horiz-adv-x="956" />
<glyph unicode="?" horiz-adv-x="815" d="M46 810v186q27 88 141 91h501q78 -23 79 -97l2 -249q-19 -60 -61 -106l-139 -133q-53 -52 -53 -148l-1 -96l-233 2l1 186q0 54 51 106l205 203l1 59q22 60 -109 53l-103 1q-76 15 -72 -61zM285 2l2 204h226v-200z" />
<glyph unicode="@" horiz-adv-x="1663" />
<glyph unicode="A" horiz-adv-x="1044" d="M11 43l311 739l-227 1l18 234h299l63 151l197 -74l-23 -77h317l-33 -237l-173 -1l274 -735l-212 -73l-281 752l-315 -745zM350 123l227 229l122 -134l-226 -228z" />
<glyph unicode="B" horiz-adv-x="920" d="M52 860l29 227h499q162 -9 196 -76q29 -56 29 -120q1 -12 -1 -24q-6 -77 -115 -195h15q154 0 172 -120v-349q-9 -93 -61.5 -145t-127.5 -69q-61 -15 -124 -15q-118 0 -241 52l80 200q112 -35 168 -35q29 -1 44 9q35 23 35 203q0 34 -1 74l-302 -2v-197 q-39 -280 -249 -280q-20 0 -41 3v202h1q63 0 63 94q0 15 -2 33v138h-64l1 204l82 -2v190h-85zM346 681l103 22q100 54 100 141q0 8 -1 16h-202v-179z" />
<glyph unicode="C" d="M52 546q10 178 46 228l160 72h-191l13 76l18 72l36 92h604q212 -51 225 -316h-212q-3 77 -91 77q-8 0 -17 -1h-285q-88 -190 -92 -288v-14q0 -90 50 -170q54 -86 120 -122q49 -28 126 -29q24 -1 51 3q113 12 209 146l143 -178q-125 -121 -203 -162q-76 -40 -204 -42h-8 q-123 0 -226 50q-106 51 -194 190q-79 125 -79 281q0 17 1 35z" />
<glyph unicode="D" horiz-adv-x="973" d="M36 850l38 237h706l154 -1v-486q2 -26 2 -52q0 -94 -26 -182q-33 -112 -128 -220t-209 -132q-83 -18 -325 -17q-89 0 -199 2l1 227l152 2l-89 45v577h-77zM344 222q29 -4 56 -4q87 0 154 41q88 54 118 135q21 59 21 274q0 80 -3 182h-346v-628z" />
<glyph unicode="E" horiz-adv-x="885" d="M46 510l33 219l108 -1v125l-141 -1l39 238h770l-64 -242l-389 -2v-119h427l-39 -217h-393q-3 -46 -3 -83q0 -103 24 -145q33 -56 111 -56h293l-40 -227q-74 -2 -135 -2q-229 0 -273 24q-56 30 -118 99.5t-78 203.5v186h-132z" />
<glyph unicode="F" horiz-adv-x="828" d="M40 858l39 230h713l-51 -230h-370l-1 -265l29 109l295 -60l-44 -238l-282 56l1 -430l-240 -51v826l116 53h-205z" />
<glyph unicode="G" horiz-adv-x="1035" d="M34 841l82 241h842l-40 -240h-575v-508q-1 -7 -1 -14q0 -82 93 -82q13 0 29 2h286v188l-192 -1v227h428v-654l-1 -62l-232 -45v190l-89 -83l-343 -1q-116 17 -166.5 88.5t-51.5 206.5v477l141 71z" />
<glyph unicode="H" horiz-adv-x="954" d="M45 1085h241v-371l352 2v366l242 1v-377h42l19 -220h-61v-352q-24 -72 -60 -95.5t-112.5 -36t-153.5 -12.5l-1 212q73 4 91 60v224h-294l-64 102v-572l-240 -41z" />
<glyph unicode="I" horiz-adv-x="558" d="M42 -2l22 225l94 -1l1 579l101 57h-215l23 230h436l-32 -230h-70v-636h89l-13 -224h-436z" />
<glyph unicode="J" horiz-adv-x="558" d="M46 36q112 10 176 92q54 69 54 500q0 81 -2 174l109 56h-302l54 228h376v-836q-4 -109 -26.5 -188.5t-132.5 -163.5t-287 -102z" />
<glyph unicode="K" horiz-adv-x="936" d="M42 -1v1089h227l1 -393l417 418l166 -166l-355 -357q180 -326 230 -336q7 -1 14 -1q46 0 107 51l87 -215q-87 -95 -166 -103q-18 -2 -36 -1l-122 22q-79 29 -294 431l-48 -53v-386h-228z" />
<glyph unicode="L" horiz-adv-x="828" d="M30 4l36 247h51v71h-79l21 196h61l2 572h237l-1 -572l136 -1l-23 -192l-106 -1v-71l427 1l-25 -252z" />
<glyph unicode="M" horiz-adv-x="1122" d="M38 848l66 236h323v81l253 -3v-78h271q99 -15 110 -110l-2 -726q-41 -173 -114.5 -219.5t-181.5 -46.5v242h2q54 0 55 226q0 39 -2 84v308h-136v-807l-257 -45l1 852h-106v-820l-258 -33v807l87 52h-111z" />
<glyph unicode="N" horiz-adv-x="964" d="M40 -4l2 1090h232l-1 -173l27 67q153 -41 226 -91.5t152 -166.5l11 -32l-1 394h230v-898q1 -6 1 -11q0 -55 -54 -119q-52 -61 -197 -61q-21 0 -44 1v226q69 6 69 79q0 12 -2 25q1 54 -23.5 117.5t-152 169.5t-242.5 138v-755h-233z" />
<glyph unicode="O" d="M38 121v921l236 48v-104l62 104h528q92 -25 92 -247v-28v-721q-19 -88 -150 -92h-610h-10q-127 0 -148 119zM274 238h446v616h-446v-616z" />
<glyph unicode="P" horiz-adv-x="916" d="M37 857l47 228h662q122 -23 126 -162l-2 -406q-11 -123 -128 -123h-4h-328l-77 138v-363q-19 -122 -83 -151q-61 -28 -192 -28h-9l-1 211q4 -1 8 -1q44 0 45 131q0 15 -1 31v424l125 70zM326 856l1 -206l303 -1v207h-304z" />
<glyph unicode="Q" horiz-adv-x="1007" d="M39 850l55 240h761q107 -48 107 -186q0 -11 -1 -22l-1 -732q-9 -141 -132 -149h-249l331 -71l-48 -216l-444 81l43 206l-311 -1q-84 12 -109 184v612l97 54h-99zM278 137l54 100h392v617h-446v-717z" />
<glyph unicode="R" horiz-adv-x="933" d="M12 398l86 55l2 337l110 60h-173l50 238h690q73 -9 100 -94l-2 -321q-23 -111 -67 -149t-157 -88l63 -101q71 -110 200 -127l-19 -246l-129 24q-125 25 -265 262l-51 96l-125 -59l-1 -286l-224 -1v212zM325 542l239 94q87 32 87 103v111h-326v-308z" />
<glyph unicode="S" horiz-adv-x="889" d="M31 858l45 232h594q96 -24 124.5 -108t28.5 -147l-209 -41q0 65 -108 65q-16 0 -34 -1h-165l503 -493q32 -42 32 -116q0 -55 -17 -127q-42 -108 -206 -123l-404 1q-70 23 -111 89t-63 164l219 74q9 -88 70 -88h4l213 -1q21 5 21 19q0 18 -37 52l-468 457l115 92h-147z " />
<glyph unicode="T" horiz-adv-x="812" d="M32 850l24 238h726l-29 -240h-259v-519q-2 -15 -2 -28q0 -96 84 -115l-58 -226h-8q-104 0 -178 72q-76 74 -78 196v572l104 50h-326z" />
<glyph unicode="U" horiz-adv-x="994" d="M39 910l14 148l245 43q-26 -243 -26 -393q0 -110 14 -171q33 -143 106 -227q48 -55 177 -54q66 0 153 14l-1 820l232 -14v-1048l-232 -23v132l-42 -145l-50 -11h-25q-206 0 -315 63q-115 66 -189 272q-63 175 -63 482q0 54 2 112z" />
<glyph unicode="V" horiz-adv-x="1042" d="M2 1038l236 64l292 -819q146 119 189 261q35 115 35 246q0 31 -2 62l-117 -1l27 238l324 1q27 -110 27 -226q-1 -78 -13 -160q-30 -202 -97 -336t-201 -294l-116 44l55 -153l-244 -92z" />
<glyph unicode="W" horiz-adv-x="1160" d="M-3 1038l233 56l134 -660q98 82 113 170q4 23 4 52q0 79 -31 196h-93l36 235l276 -1l136 -632q59 36 87 138q11 41 11 91q0 76 -25 175h-86l39 229l252 -1q51 -280 51 -429q0 -64 -10 -104q-32 -132 -77 -212t-135 -159l-64 44l54 -251l-228 -83l-99 450 q-33 -104 -103 -159l-53 26l45 -234l-214 -95z" />
<glyph unicode="X" horiz-adv-x="1008" d="M-1 141q275 180 405 316l-383 511l192 150l347 -468q141 202 223 447l223 -90q-106 -278 -309 -537l290 -390l-201 -161l-254 347q-76 -91 -155 -158t-213 -142z" />
<glyph unicode="Y" horiz-adv-x="866" d="M2 938l174 148l304 -596q83 84 116 224q22 96 22 220q0 57 -5 120l222 -9q-4 -424 -90.5 -592.5t-213.5 -302.5t-305 -248l-96 226l206 168z" />
<glyph unicode="Z" horiz-adv-x="926" d="M34 854l81 233h736l-26 -236q-226 -125 -369 -305t-157 -312l327 1q63 22 100 95l177 -117q-66 -145 -138 -184q-57 -31 -139 -31q-21 0 -43 2h-392q-9 -1 -17 -1q-50 0 -83 32q-38 37 -46 105q-3 26 -3 53q0 43 8 89q12 74 130.5 251t290.5 325h-437z" />
<glyph unicode="[" horiz-adv-x="455" />
<glyph unicode="\" horiz-adv-x="455" />
<glyph unicode="]" horiz-adv-x="455" />
<glyph unicode="^" horiz-adv-x="768" />
<glyph unicode="_" horiz-adv-x="911" />
<glyph unicode="`" horiz-adv-x="476" d="M93 1393l112 87l189 -195l-68 -79z" />
<glyph unicode="a" horiz-adv-x="1044" d="M11 43l311 739l-227 1l18 234h299l63 151l197 -74l-23 -77h317l-33 -237l-173 -1l274 -735l-212 -73l-281 752l-315 -745zM350 123l227 229l122 -134l-226 -228z" />
<glyph unicode="b" horiz-adv-x="920" d="M52 860l29 227h499q162 -9 196 -76q29 -56 29 -120q1 -12 -1 -24q-6 -77 -115 -195h15q154 0 172 -120v-349q-9 -93 -61.5 -145t-127.5 -69q-61 -15 -124 -15q-118 0 -241 52l80 200q112 -35 168 -35q29 -1 44 9q35 23 35 203q0 34 -1 74l-302 -2v-197 q-39 -280 -249 -280q-20 0 -41 3v202h1q63 0 63 94q0 15 -2 33v138h-64l1 204l82 -2v190h-85zM346 681l103 22q100 54 100 141q0 8 -1 16h-202v-179z" />
<glyph unicode="c" d="M52 546q10 178 46 228l160 72h-191l13 76l18 72l36 92h604q212 -51 225 -316h-212q-3 77 -91 77q-8 0 -17 -1h-285q-88 -190 -92 -288v-14q0 -90 50 -170q54 -86 120 -122q49 -28 126 -29q24 -1 51 3q113 12 209 146l143 -178q-125 -121 -203 -162q-76 -40 -204 -42h-8 q-123 0 -226 50q-106 51 -194 190q-79 125 -79 281q0 17 1 35z" />
<glyph unicode="d" horiz-adv-x="973" d="M36 850l38 237h706l154 -1v-486q2 -26 2 -52q0 -94 -26 -182q-33 -112 -128 -220t-209 -132q-83 -18 -325 -17q-89 0 -199 2l1 227l152 2l-89 45v577h-77zM344 222q29 -4 56 -4q87 0 154 41q88 54 118 135q21 59 21 274q0 80 -3 182h-346v-628z" />
<glyph unicode="e" horiz-adv-x="930" d="M47 849v233h791v-228l-456 -1v-127l361 -1l-25 -220h-336v-283l470 55l67 -242l-833 -105l-26 242l94 16v315h-99l23 206l78 1l-1 92l129 48z" />
<glyph unicode="f" horiz-adv-x="828" d="M40 858l39 230h713l-51 -230h-370l-1 -265l29 109l295 -60l-44 -238l-282 56l1 -430l-240 -51v826l116 53h-205z" />
<glyph unicode="g" horiz-adv-x="1035" d="M34 841l82 241h842l-40 -240h-575v-508q-1 -7 -1 -14q0 -82 93 -82q13 0 29 2h286v188l-192 -1v227h428v-654l-1 -62l-232 -45v190l-89 -83l-343 -1q-116 17 -166.5 88.5t-51.5 206.5v477l141 71z" />
<glyph unicode="h" horiz-adv-x="954" d="M45 1085h241v-371l352 2v366l242 1v-377h42l19 -220h-61v-352q-24 -72 -60 -95.5t-112.5 -36t-153.5 -12.5l-1 212q73 4 91 60v224h-294l-64 102v-572l-240 -41z" />
<glyph unicode="i" horiz-adv-x="365" d="M66 1v1056l242 37l-1 -1093h-241z" />
<glyph unicode="j" horiz-adv-x="558" d="M46 36q112 10 176 92q54 69 54 500q0 81 -2 174l109 56h-302l54 228h376v-836q-4 -109 -26.5 -188.5t-132.5 -163.5t-287 -102z" />
<glyph unicode="k" horiz-adv-x="936" d="M42 -1v1089h227l1 -393l417 418l166 -166l-355 -357q180 -326 230 -336q7 -1 14 -1q46 0 107 51l87 -215q-87 -95 -166 -103q-18 -2 -36 -1l-122 22q-79 29 -294 431l-48 -53v-386h-228z" />
<glyph unicode="l" horiz-adv-x="828" d="M30 4l36 247h51v71h-79l21 196h61l2 572h237l-1 -572l136 -1l-23 -192l-106 -1v-71l427 1l-25 -252z" />
<glyph unicode="m" horiz-adv-x="1122" d="M38 848l66 236h323v81l253 -3v-78h271q99 -15 110 -110l-2 -726q-41 -173 -114.5 -219.5t-181.5 -46.5v242h2q54 0 55 226q0 39 -2 84v308h-136v-807l-257 -45l1 852h-106v-820l-258 -33v807l87 52h-111z" />
<glyph unicode="n" horiz-adv-x="964" d="M40 -4l2 1090h232l-1 -173l27 67q153 -41 226 -91.5t152 -166.5l11 -32l-1 394h230v-898q1 -6 1 -11q0 -55 -54 -119q-52 -61 -197 -61q-21 0 -44 1v226q69 6 69 79q0 12 -2 25q1 54 -23.5 117.5t-152 169.5t-242.5 138v-755h-233z" />
<glyph unicode="o" d="M38 121v921l236 48v-104l62 104h528q92 -25 92 -247v-28v-721q-19 -88 -150 -92h-610h-10q-127 0 -148 119zM274 238h446v616h-446v-616z" />
<glyph unicode="p" horiz-adv-x="916" d="M37 857l47 228h662q122 -23 126 -162l-2 -406q-11 -123 -128 -123h-4h-328l-77 138v-363q-19 -122 -83 -151q-61 -28 -192 -28h-9l-1 211q4 -1 8 -1q45 0 45 131q0 15 -1 31v424l125 70zM326 856l1 -206l303 -1v207h-304z" />
<glyph unicode="q" horiz-adv-x="1007" d="M39 850l55 240h761q107 -48 107 -186q0 -11 -1 -22l-1 -732q-9 -141 -132 -149h-249l331 -71l-48 -216l-444 81l43 206l-311 -1q-84 12 -109 184v612l97 54h-99zM278 137l54 100h392v617h-446v-717z" />
<glyph unicode="r" horiz-adv-x="933" d="M12 398l86 55l2 337l110 60h-173l50 238h690q73 -9 100 -94l-2 -321q-23 -111 -67 -149t-157 -88l63 -101q71 -110 200 -127l-19 -246l-129 24q-125 25 -265 262l-51 96l-125 -59l-1 -286l-224 -1v212zM325 542l239 94q87 32 87 103v111h-326v-308z" />
<glyph unicode="s" horiz-adv-x="889" d="M31 858l45 232h594q96 -24 124.5 -108t28.5 -147l-209 -41q0 65 -108 65q-16 0 -34 -1h-165l503 -493q32 -42 32 -116q0 -55 -17 -127q-42 -108 -206 -123l-404 1q-70 23 -111 89t-63 164l219 74q9 -88 70 -88h4l213 -1q21 5 21 19q0 18 -37 52l-468 457l115 92h-147z " />
<glyph unicode="t" horiz-adv-x="812" d="M32 850l24 238h726l-29 -240h-259v-519q-2 -15 -2 -28q0 -96 84 -115l-58 -226h-8q-104 0 -178 72q-76 74 -78 196v572l104 50h-326z" />
<glyph unicode="u" horiz-adv-x="994" d="M39 910l14 148l245 43q-26 -243 -26 -393q0 -110 14 -171q33 -143 106 -227q48 -55 177 -54q66 0 153 14l-1 820l232 -14v-1048l-232 -23v132l-42 -145l-50 -11h-25q-206 0 -315 63q-115 66 -189 272q-63 175 -63 482q0 54 2 112z" />
<glyph unicode="v" horiz-adv-x="1042" d="M2 1038l236 64l292 -819q146 119 189 261q35 115 35 246q0 31 -2 62l-117 -1l27 238l324 1q27 -110 27 -226q-1 -78 -13 -160q-30 -202 -97 -336t-201 -294l-116 44l55 -153l-244 -92z" />
<glyph unicode="w" horiz-adv-x="1160" d="M-3 1038l233 56l134 -660q98 82 113 170q4 23 4 52q0 79 -31 196h-93l36 235l276 -1l136 -632q59 36 87 138q11 41 11 91q0 76 -25 175h-86l39 229l252 -1q51 -280 51 -429q0 -64 -10 -104q-32 -132 -77 -212t-135 -159l-64 44l54 -251l-228 -83l-99 450 q-33 -104 -103 -159l-53 26l45 -234l-214 -95z" />
<glyph unicode="x" horiz-adv-x="1008" d="M-1 141q275 180 405 316l-383 511l192 150l347 -468q141 202 223 447l223 -90q-106 -278 -309 -537l290 -390l-201 -161l-254 347q-76 -91 -155 -158t-213 -142z" />
<glyph unicode="y" horiz-adv-x="866" d="M2 938l174 148l304 -596q83 84 116 224q22 96 22 220q0 57 -5 120l222 -9q-4 -424 -90.5 -592.5t-213.5 -302.5t-305 -248l-96 226l206 168z" />
<glyph unicode="z" horiz-adv-x="926" d="M34 854l81 233h736l-26 -236q-226 -125 -369 -305t-157 -312l327 1q63 22 100 95l177 -117q-66 -145 -138 -184q-57 -31 -139 -31q-21 0 -43 2h-392q-9 -1 -17 -1q-50 0 -83 32q-38 37 -46 105q-3 26 -3 53q0 43 8 89q12 74 130.5 251t290.5 325h-437z" />
<glyph unicode="{" horiz-adv-x="547" />
<glyph unicode="|" horiz-adv-x="425" />
<glyph unicode="}" horiz-adv-x="547" />
<glyph unicode="~" horiz-adv-x="956" />
<glyph unicode="&#xa1;" horiz-adv-x="408" d="M62 3l72 798l193 -3l2 -795h-267zM134 879v209l193 -1l-1 -208h-192z" />
<glyph unicode="&#xa2;" horiz-adv-x="911" />
<glyph unicode="&#xa3;" horiz-adv-x="911" />
<glyph unicode="&#xa5;" horiz-adv-x="911" />
<glyph unicode="&#xa6;" horiz-adv-x="425" />
<glyph unicode="&#xa7;" horiz-adv-x="911" />
<glyph unicode="&#xa8;" horiz-adv-x="514" d="M20 1400l187 37l12 -199l-99 -20zM293 1238l9 199l190 -41l-106 -182z" />
<glyph unicode="&#xa9;" horiz-adv-x="1207" />
<glyph unicode="&#xaa;" horiz-adv-x="606" />
<glyph unicode="&#xab;" horiz-adv-x="760" d="M58 572v22l308 316l70 -76l-252 -260l252 -260l-70 -61zM305 572v22l308 316l70 -77l-252 -260l252 -259l-70 -61z" />
<glyph unicode="&#xac;" horiz-adv-x="956" />
<glyph unicode="&#xad;" horiz-adv-x="572" d="M52 554l36 206l338 1l-36 -207h-338z" />
<glyph unicode="&#xae;" horiz-adv-x="1207" />
<glyph unicode="&#xaf;" horiz-adv-x="904" />
<glyph unicode="&#xb0;" horiz-adv-x="655" />
<glyph unicode="&#xb1;" horiz-adv-x="899" />
<glyph unicode="&#xb2;" horiz-adv-x="545" />
<glyph unicode="&#xb3;" horiz-adv-x="545" />
<glyph unicode="&#xb4;" horiz-adv-x="476" d="M93 1285l189 195l112 -87l-234 -187z" />
<glyph unicode="&#xb5;" horiz-adv-x="944" />
<glyph unicode="&#xb6;" horiz-adv-x="880" />
<glyph unicode="&#xb7;" horiz-adv-x="545" />
<glyph unicode="&#xb8;" horiz-adv-x="639" d="M178 -208q229 18 30 181l101 67q120 -122 120 -198q0 -104 -221 -124z" />
<glyph unicode="&#xb9;" horiz-adv-x="545" />
<glyph unicode="&#xba;" horiz-adv-x="598" />
<glyph unicode="&#xbb;" horiz-adv-x="760" d="M81 314l252 259l-252 260l70 76l308 -315v-23l-308 -318zM328 314l252 260l-252 259l70 77l308 -316v-22l-308 -319z" />
<glyph unicode="&#xbc;" horiz-adv-x="1366" />
<glyph unicode="&#xbd;" horiz-adv-x="1366" />
<glyph unicode="&#xbe;" horiz-adv-x="1366" />
<glyph unicode="&#xbf;" horiz-adv-x="815" d="M46 349q19 60 60 105l140 134q52 51 52 147l1 96l233 -1l-1 -186q0 -54 -51 -106l-205 -204l-1 -59q-21 -60 109 -53h103q76 -16 72 60l211 -2v-186q-27 -88 -142 -92h-501q-78 24 -79 97zM302 884v200l228 3l-3 -203h-225z" />
<glyph unicode="&#xc0;" horiz-adv-x="1044" d="M14 43l310 739l-226 1l17 234h299l64 151l196 -74l-23 -77h317l-33 -237l-173 -1l275 -735l-212 -73l-282 752l-314 -745zM318 1393l112 87l188 -195l-67 -79zM352 123l227 229l123 -134l-227 -228z" />
<glyph unicode="&#xc1;" horiz-adv-x="1044" d="M11 43l311 739l-227 1l18 234h299l63 151l197 -74l-23 -77h317l-33 -237l-173 -1l274 -735l-212 -73l-281 752l-315 -745zM350 123l227 229l122 -134l-226 -228zM490 1285l189 195l111 -87l-233 -187z" />
<glyph unicode="&#xc2;" horiz-adv-x="1044" d="M11 43l311 739l-227 1l18 234h299l63 151l197 -74l-23 -77h317l-33 -237l-173 -1l274 -735l-212 -73l-281 752l-315 -745zM350 123l227 229l122 -134l-226 -228zM359 1285l189 195l1 -1l1 1l188 -195l-67 -79l-122 97l-123 -97z" />
<glyph unicode="&#xc3;" horiz-adv-x="1044" d="M11 43l311 739l-227 1l18 234h299l63 151l197 -74l-23 -77h317l-33 -237l-173 -1l274 -735l-212 -73l-281 752l-315 -745zM248 1316q93 207 275 106q196 -120 239 46l60 -110q-101 -217 -288 -93q-172 106 -226 -59zM350 123l227 229l122 -134l-226 -228z" />
<glyph unicode="&#xc4;" horiz-adv-x="1044" d="M11 43l311 739l-227 1l18 234h299l63 151l197 -74l-23 -77h317l-33 -237l-173 -1l274 -735l-212 -73l-281 752l-315 -745zM298 1400l186 37l13 -199l-100 -20zM350 123l227 229l122 -134l-226 -228zM570 1238l9 199l190 -41l-105 -182z" />
<glyph unicode="&#xc5;" horiz-adv-x="1092" />
<glyph unicode="&#xc6;" horiz-adv-x="1177" d="M2 43l311 739l-227 1l18 234h299l63 151l197 -74l-22 -76h513l-64 -241l-287 -2v-173h325l-38 -217l-292 1q-12 -48 21 -104t111 -56h192l-40 -226q-252 -8 -308 21.5t-117.5 99t-77.5 203.5v62h-190l-171 -408zM481 604l107 -1v173l-36 -2z" />
<glyph unicode="&#xc7;" d="M52 546.5q10 177.5 46 227.5l160 72h-191l13 76l18 72l36 92h604q212 -51 225 -316h-212q-3 84 -108 76h-285q-88 -191 -92 -288.5t50.5 -183.5t119 -122.5t177.5 -25t209 145.5l143 -178q-125 -121 -202.5 -161.5t-205 -42t-233.5 49.5t-194 190t-78 316.5zM394 -208 q229 18 30 181l101 67q120 -122 120 -198q0 -104 -221 -124z" />
<glyph unicode="&#xc8;" horiz-adv-x="930" d="M47 849v233h791v-228l-456 -1v-127l361 -1l-25 -220h-336v-283l470 55l67 -242l-833 -105l-26 242l94 16v315h-99l23 206l78 1l-1 92l129 48zM244 1393l112 87l189 -195l-67 -79z" />
<glyph unicode="&#xc9;" horiz-adv-x="930" d="M47 849v233h791v-228l-456 -1v-127l361 -1l-25 -220h-336v-283l470 55l67 -242l-833 -105l-26 242l94 16v315h-99l23 206l78 1l-1 92l129 48zM382 1285l188 195l112 -87l-233 -187z" />
<glyph unicode="&#xca;" horiz-adv-x="930" d="M47 849v233h791v-228l-456 -1v-127l361 -1l-25 -220h-336v-283l470 55l67 -242l-833 -105l-26 242l94 16v315h-99l23 206l78 1l-1 92l129 48zM291 1285l189 195l1 -1l1 1l188 -195l-67 -79l-122 98l-123 -98z" />
<glyph unicode="&#xcb;" horiz-adv-x="930" d="M47 849v233h791v-228l-456 -1v-127l361 -1l-25 -220h-336v-283l470 55l67 -242l-833 -105l-26 242l94 16v315h-99l23 206l78 1l-1 92l129 48zM246 1400l186 37l13 -199l-100 -20zM518 1238l9 200l190 -41l-105 -182z" />
<glyph unicode="&#xcc;" horiz-adv-x="365" d="M-27 1393l112 87l189 -194l-68 -80zM66 1057l243 37l-1 -1093h-241z" />
<glyph unicode="&#xcd;" horiz-adv-x="365" d="M66 1v1056l242 37l-1 -1093h-241zM118 1285l189 195l111 -87l-233 -187z" />
<glyph unicode="&#xce;" horiz-adv-x="365" d="M34 1285l152 195v-1v1l151 -195l-53 -79l-98 98l-98 -98zM66 1v1056l242 37l-1 -1093h-241z" />
<glyph unicode="&#xcf;" horiz-adv-x="365" d="M-46 1400l187 37l12 -199l-99 -20zM66 1v1056l242 37v-1093h-242zM226 1238l9 199l191 -41l-106 -182z" />
<glyph unicode="&#xd0;" horiz-adv-x="1183" />
<glyph unicode="&#xd1;" horiz-adv-x="964" d="M40 -4l2 1090h232l-1 -173l27 67q153 -41 226 -91.5t152 -166.5l11 -32l-1 394h230v-898q6 -61 -53 -130.5t-241 -59.5v226q80 7 67 104q1 54 -23.5 117.5t-152 169.5t-242.5 138v-755h-233zM186 1315q93 207 276 106q196 -119 238 46l60 -109q-102 -218 -287 -94 q-173 107 -227 -58z" />
<glyph unicode="&#xd2;" d="M38 121v921l236 48v-104l62 104h528q98 -27 92 -275v-721q-19 -88 -150 -92h-610q-136 -5 -158 119zM274 238h446v616h-446v-616zM301 1393l112 87l189 -195l-68 -79z" />
<glyph unicode="&#xd3;" d="M38 121v921l236 48v-104l62 104h528q98 -27 92 -275v-721q-19 -88 -150 -92h-610q-136 -5 -158 119zM274 238h446v616h-446v-616zM453 1285l189 195l112 -87l-234 -187z" />
<glyph unicode="&#xd4;" d="M38 121v921l236 48v-104l62 104h528q98 -27 92 -275v-721q-19 -88 -150 -92h-610q-136 -5 -158 119zM274 238h446v616h-446v-616zM318 1285l188 195h1h1l188 -195l-66 -79l-123 98l-122 -98z" />
<glyph unicode="&#xd5;" d="M38 121v921l236 48v-104l62 104h528q98 -27 92 -275v-721q-19 -88 -150 -92h-610q-136 -5 -158 119zM230 1315q92 207 275 106q195 -119 238 46l60 -109q-101 -218 -287 -94q-173 107 -226 -58zM274 238h446v616h-446v-616z" />
<glyph unicode="&#xd6;" d="M38 121v921l236 48v-104l62 104h528q98 -27 92 -275v-721q-19 -88 -150 -92h-610q-136 -5 -158 119zM273 1400l186 37l13 -199l-100 -20zM274 238h446v616h-446v-616zM546 1238l8 200l190 -41l-105 -182z" />
<glyph unicode="&#xd7;" horiz-adv-x="956" />
<glyph unicode="&#xd8;" horiz-adv-x="1274" />
<glyph unicode="&#xd9;" horiz-adv-x="994" d="M39 910l14 148l245 43q-45 -421 -12 -564t106 -226.5t330 -40.5l-1 820l232 -14v-1048l-232 -23v132l-42 -145l-50 -11q-225 -4 -340 63t-189 272.5t-61 593.5zM298 1393l112 87l189 -195l-67 -79z" />
<glyph unicode="&#xda;" horiz-adv-x="994" d="M39 910l14 148l245 43q-45 -421 -12 -564t106 -226.5t330 -40.5l-1 820l232 -14v-1048l-232 -23v132l-42 -145l-50 -11q-225 -4 -340 63t-189 272.5t-61 593.5zM480 1285l189 195l112 -87l-234 -187z" />
<glyph unicode="&#xdb;" horiz-adv-x="994" d="M39 910l14 148l245 43q-45 -421 -12 -564t106 -226.5t330 -40.5l-1 820l232 -14v-1048l-232 -23v132l-42 -145l-50 -11q-225 -4 -340 63t-189 272.5t-61 593.5zM330 1285l188 195h1h1l188 -195l-66 -79l-123 98l-122 -98z" />
<glyph unicode="&#xdc;" horiz-adv-x="994" d="M39 910l14 148l245 43q-45 -421 -12 -564t106 -226.5t330 -40.5l-1 820l232 -14v-1048l-232 -23v132l-42 -145l-50 -11q-225 -4 -340 63t-189 272.5t-61 593.5zM286 1400l187 37l13 -199l-100 -20zM559 1238l9 199l190 -41l-105 -182z" />
<glyph unicode="&#xdd;" horiz-adv-x="1092" />
<glyph unicode="&#xde;" horiz-adv-x="1092" />
<glyph unicode="&#xdf;" horiz-adv-x="925" d="M54 22l1 692q-1 332 431 374l253 2l97 -224l-168 -260q209 -18 215.5 -235t-57.5 -291t-139 -91q-176 -42 -284 13l-1 242q170 -61 212 -33.5t37.5 117t-221.5 90.5l-68 167l203 276l-83 -2q-200 -40 -201 -142l1 -746z" />
<glyph unicode="&#xe0;" horiz-adv-x="1044" d="M13 43l311 739l-227 1l18 234h299l63 151l197 -74l-23 -77h317l-33 -237l-173 -1l274 -735l-212 -73l-281 752l-315 -745zM318 1393l112 87l189 -195l-68 -79zM352 123l227 229l122 -134l-226 -228z" />
<glyph unicode="&#xe1;" horiz-adv-x="1044" d="M11 43l311 739l-227 1l18 234h299l63 151l197 -74l-23 -77h317l-33 -237l-173 -1l274 -735l-212 -73l-281 752l-315 -745zM350 123l227 229l122 -134l-226 -228zM491 1285l189 195l112 -87l-234 -187z" />
<glyph unicode="&#xe2;" horiz-adv-x="1044" d="M11 43l311 739l-227 1l18 234h299l63 151l197 -74l-23 -77h317l-33 -237l-173 -1l274 -735l-212 -73l-281 752l-315 -745zM350 123l227 229l122 -134l-226 -228zM359 1285l189 195l1 -1l1 1l188 -195l-67 -79l-122 98l-122 -98z" />
<glyph unicode="&#xe3;" horiz-adv-x="1044" d="M11 43l311 739l-227 1l18 234h299l63 151l197 -74l-23 -77h317l-33 -237l-173 -1l274 -735l-212 -73l-281 752l-315 -745zM248 1315q92 208 275 106q196 -119 239 47l59 -110q-101 -217 -287 -93q-173 106 -226 -59zM350 123l227 229l122 -134l-226 -228z" />
<glyph unicode="&#xe4;" horiz-adv-x="1044" d="M11 43l311 739l-227 1l18 234h299l63 151l197 -74l-23 -77h317l-33 -237l-173 -1l274 -735l-212 -73l-281 752l-315 -745zM298 1400l187 37l12 -199l-99 -20zM350 123l227 229l122 -134l-226 -228zM571 1238l9 199l190 -41l-106 -182z" />
<glyph unicode="&#xe5;" horiz-adv-x="911" />
<glyph unicode="&#xe6;" horiz-adv-x="1177" d="M2 43l311 739l-227 1l18 234h299l63 151l197 -74l-22 -76h513l-64 -241l-287 -2v-173h325l-38 -217l-292 1q-12 -48 21 -104t111 -56h192l-40 -226q-252 -8 -308 21.5t-117.5 99t-77.5 203.5v62h-190l-171 -408zM481 604l107 -1v173l-36 -2z" />
<glyph unicode="&#xe7;" d="M52 546.5q10 177.5 46 227.5l160 72h-191l13 76l18 72l36 92h604q212 -51 225 -316h-212q-3 84 -108 76h-285q-88 -191 -92 -288.5t50.5 -183.5t119 -122.5t177.5 -25t209 145.5l143 -178q-125 -121 -202.5 -161.5t-205 -42t-233.5 49.5t-194 190t-78 316.5zM394 -208 q229 18 30 181l101 67q120 -122 120 -198q0 -104 -221 -124z" />
<glyph unicode="&#xe8;" horiz-adv-x="930" d="M47 849v233h791v-228l-456 -1v-127l361 -1l-25 -220h-336v-283l470 55l67 -242l-833 -105l-26 242l94 16v315h-99l23 206l78 1l-1 92l129 48zM244 1393l112 87l189 -195l-68 -79z" />
<glyph unicode="&#xe9;" horiz-adv-x="930" d="M47 849v233h791v-228l-456 -1v-127l361 -1l-25 -220h-336v-283l470 55l67 -242l-833 -105l-26 242l94 16v315h-99l23 206l78 1l-1 92l129 48zM382 1285l189 195l112 -87l-234 -187z" />
<glyph unicode="&#xea;" horiz-adv-x="930" d="M47 849v233h791v-228l-456 -1v-127l361 -1l-25 -220h-336v-283l470 55l67 -242l-833 -105l-26 242l94 16v315h-99l23 206l78 1l-1 92l129 48zM291 1285l189 195l1 -1l1 1l188 -195l-67 -79l-122 98l-122 -98z" />
<glyph unicode="&#xeb;" horiz-adv-x="930" d="M47 849v233h791v-228l-456 -1v-127l361 -1l-25 -220h-336v-283l470 55l67 -242l-833 -105l-26 242l94 16v315h-99l23 206l78 1l-1 92l129 48zM246 1400l187 37l12 -199l-99 -20zM519 1238l9 199l190 -41l-106 -182z" />
<glyph unicode="&#xec;" horiz-adv-x="365" d="M-27 1393l112 87l189 -195l-68 -79zM67 1v1056l242 37l-1 -1093h-241z" />
<glyph unicode="&#xed;" horiz-adv-x="365" d="M66 1v1056l242 37l-1 -1093h-241zM119 1285l189 195l112 -87l-234 -187z" />
<glyph unicode="&#xee;" horiz-adv-x="365" d="M44 1285l151 195l1 -1v1l151 -195l-54 -79l-97 98l-98 -98zM66 1v1056l242 37l-1 -1093h-241z" />
<glyph unicode="&#xef;" horiz-adv-x="365" d="M-46 1400l187 37l12 -199l-99 -20zM66 1v1056l242 37l-1 -1093h-241zM227 1238l9 199l190 -41l-106 -182z" />
<glyph unicode="&#xf0;" horiz-adv-x="911" />
<glyph unicode="&#xf1;" horiz-adv-x="964" d="M40 -4l2 1090h232l-1 -173l27 67q153 -41 226 -91.5t152 -166.5l11 -32l-1 394h230v-898q6 -61 -53 -130.5t-241 -59.5v226q80 7 67 104q1 54 -23.5 117.5t-152 169.5t-242.5 138v-755h-233zM187 1315q92 208 275 106q196 -119 239 47l59 -110q-101 -217 -287 -93 q-173 106 -226 -59z" />
<glyph unicode="&#xf2;" d="M38 121v921l236 48v-104l62 104h528q98 -27 92 -275v-721q-19 -88 -150 -92h-610q-136 -5 -158 119zM274 238h446v616h-446v-616zM301 1393l112 87l189 -195l-68 -79z" />
<glyph unicode="&#xf3;" d="M38 121v921l236 48v-104l62 104h528q98 -27 92 -275v-721q-19 -88 -150 -92h-610q-136 -5 -158 119zM274 238h446v616h-446v-616zM453 1285l189 195l112 -87l-234 -187z" />
<glyph unicode="&#xf4;" d="M38 121v921l236 48v-104l62 104h528q98 -27 92 -275v-721q-19 -88 -150 -92h-610q-136 -5 -158 119zM274 238h446v616h-446v-616zM317 1285l189 195l1 -1l1 1l188 -195l-67 -79l-122 98l-122 -98z" />
<glyph unicode="&#xf5;" d="M38 121v921l236 48v-104l62 104h528q98 -27 92 -275v-721q-19 -88 -150 -92h-610q-136 -5 -158 119zM230 1315q92 208 275 106q196 -119 239 47l59 -110q-101 -217 -287 -93q-173 106 -226 -59zM274 238h446v616h-446v-616z" />
<glyph unicode="&#xf6;" d="M38 121v921l236 48v-104l62 104h528q98 -27 92 -275v-721q-19 -88 -150 -92h-610q-136 -5 -158 119zM273 1400l187 37l12 -199l-99 -20zM274 238h446v616h-446v-616zM546 1238l9 199l190 -41l-106 -182z" />
<glyph unicode="&#xf7;" horiz-adv-x="899" />
<glyph unicode="&#xf8;" horiz-adv-x="1000" />
<glyph unicode="&#xf9;" horiz-adv-x="994" d="M39 910l14 148l245 43q-45 -421 -12 -564t106 -226.5t330 -40.5l-1 820l232 -14v-1048l-232 -23v132l-42 -145l-50 -11q-225 -4 -340 63t-189 272.5t-61 593.5zM299 1393l112 87l189 -195l-68 -79z" />
<glyph unicode="&#xfa;" horiz-adv-x="994" d="M39 910l14 148l245 43q-45 -421 -12 -564t106 -226.5t330 -40.5l-1 820l232 -14v-1048l-232 -23v132l-42 -145l-50 -11q-225 -4 -340 63t-189 272.5t-61 593.5zM480 1285l189 195l112 -87l-234 -187z" />
<glyph unicode="&#xfb;" horiz-adv-x="994" d="M39 910l14 148l245 43q-45 -421 -12 -564t106 -226.5t330 -40.5l-1 820l232 -14v-1048l-232 -23v132l-42 -145l-50 -11q-225 -4 -340 63t-189 272.5t-61 593.5zM329 1285l189 195l1 -1l1 1l188 -195l-67 -79l-122 98l-122 -98z" />
<glyph unicode="&#xfc;" horiz-adv-x="994" d="M39 910l14 148l245 43q-45 -421 -12 -564t106 -226.5t330 -40.5l-1 820l232 -14v-1048l-232 -23v132l-42 -145l-50 -11q-225 -4 -340 63t-189 272.5t-61 593.5zM286 1400l187 37l12 -199l-99 -20zM559 1238l9 199l190 -41l-106 -182z" />
<glyph unicode="&#xfd;" horiz-adv-x="819" />
<glyph unicode="&#xfe;" horiz-adv-x="911" />
<glyph unicode="&#xff;" horiz-adv-x="819" />
<glyph unicode="&#x152;" horiz-adv-x="1120" d="M37 121v921l235 48v-104l62 104h312h1h436l-64 -241l-273 -3v-119l311 1l-39 -218h-278q-2 -23 -2 -44v-75q3 -76 24 -109q32 -56 110 -56h178l-40 -226l-205 2q-111 11 -155 94q10 -91 -96 -94h-360q-136 -4 -157 119zM272 238h230v616h-230v-616z" />
<glyph unicode="&#x153;" horiz-adv-x="1120" d="M37 121v921l235 48v-104l62 104h312h1h436l-64 -241l-273 -3v-119l311 1l-39 -218h-278q-2 -23 -2 -44v-75q3 -76 24 -109q32 -56 110 -56h178l-40 -226l-205 2q-111 11 -155 94q10 -91 -96 -94h-360q-136 -4 -157 119zM272 238h230v616h-230v-616z" />
<glyph unicode="&#x178;" horiz-adv-x="1092" />
<glyph unicode="&#x2c6;" horiz-adv-x="561" d="M102 1285l189 195l1 -1l1 1l188 -195l-67 -79l-122 98l-122 -98z" />
<glyph unicode="&#x2dc;" horiz-adv-x="584" d="M2 1315q92 208 275 106q196 -119 239 47l59 -110q-101 -217 -287 -93q-173 106 -226 -59z" />
<glyph unicode="&#x2000;" horiz-adv-x="740" />
<glyph unicode="&#x2001;" horiz-adv-x="1480" />
<glyph unicode="&#x2002;" horiz-adv-x="740" />
<glyph unicode="&#x2003;" horiz-adv-x="1480" />
<glyph unicode="&#x2004;" horiz-adv-x="493" />
<glyph unicode="&#x2005;" horiz-adv-x="370" />
<glyph unicode="&#x2006;" horiz-adv-x="246" />
<glyph unicode="&#x2007;" horiz-adv-x="246" />
<glyph unicode="&#x2008;" horiz-adv-x="185" />
<glyph unicode="&#x2009;" horiz-adv-x="296" />
<glyph unicode="&#x200a;" horiz-adv-x="82" />
<glyph unicode="&#x2010;" horiz-adv-x="572" d="M52 554l36 206l338 1l-36 -207h-338z" />
<glyph unicode="&#x2011;" horiz-adv-x="572" d="M52 554l36 206l338 1l-36 -207h-338z" />
<glyph unicode="&#x2012;" horiz-adv-x="572" d="M52 554l36 206l338 1l-36 -207h-338z" />
<glyph unicode="&#x2013;" horiz-adv-x="911" />
<glyph unicode="&#x2014;" horiz-adv-x="1638" />
<glyph unicode="&#x2018;" horiz-adv-x="282" d="M55 794v325h169v-325h-169z" />
<glyph unicode="&#x2019;" horiz-adv-x="282" d="M55 794v325h169v-325h-169z" />
<glyph unicode="&#x201a;" horiz-adv-x="364" />
<glyph unicode="&#x201c;" horiz-adv-x="478" d="M55 794v325h169v-325h-169zM273 794v325h156v-325h-156z" />
<glyph unicode="&#x201d;" horiz-adv-x="478" d="M55 794v325h169v-325h-169zM273 794v325h156v-325h-156z" />
<glyph unicode="&#x201e;" horiz-adv-x="545" />
<glyph unicode="&#x2022;" horiz-adv-x="573" />
<glyph unicode="&#x2026;" horiz-adv-x="1638" />
<glyph unicode="&#x202f;" horiz-adv-x="296" />
<glyph unicode="&#x2039;" horiz-adv-x="545" />
<glyph unicode="&#x203a;" horiz-adv-x="545" />
<glyph unicode="&#x205f;" horiz-adv-x="370" />
<glyph unicode="&#x20ac;" horiz-adv-x="926" d="M63 399v119h66q-1 11 -1 22q0 34 3 66h-68v116h95q38 112 127 201q157 158 381 158q96 0 180 -28v-230q-79 51 -180 51q-138 0 -235 -96q-26 -27 -45 -56h456v-116h-503q-5 -31 -5 -64v-24h508v-119h-477q24 -50 66 -92q97 -97 235 -97q100 0 180 52v-232 q-84 -28 -180 -28q-222 0 -380 158q-105 105 -140 239h-83z" />
<glyph unicode="&#x2122;" horiz-adv-x="1638" />
<glyph unicode="&#x25fc;" horiz-adv-x="1120" d="M0 0v1120h1120v-1120h-1120z" />
<glyph unicode="&#xfb01;" horiz-adv-x="819" />
<glyph unicode="&#xfb02;" horiz-adv-x="819" />
</font>
</defs>
</svg>
